<?xml version="1.0" standalone="no"?>
<!DOCTYPE svg PUBLIC "-//W3C//DTD SVG 20010904//EN"
 "http://www.w3.org/TR/2001/REC-SVG-20010904/DTD/svg10.dtd">
<svg version="1.0" xmlns="http://www.w3.org/2000/svg"
 width="337.000000pt" height="337.000000pt" viewBox="0 0 337.000000 337.000000"
 preserveAspectRatio="xMidYMid meet">
<metadata>
Created by potrace 1.14, written by Peter Selinger 2001-2017
</metadata>
<g transform="translate(0.000000,337.000000) scale(0.100000,-0.100000)"
fill="#000000" stroke="none">
<path d="M2635 3300 c-11 -5 -195 -70 -410 -145 -214 -75 -467 -164 -561 -197
l-171 -60 -44 20 c-24 11 -54 23 -65 26 -20 6 -21 13 -21 126 0 82 -4 124 -13
135 -9 11 -33 15 -91 15 -103 0 -105 -3 -104 -154 l0 -116 -35 -11 c-93 -29
-164 -94 -180 -163 -9 -43 10 -76 46 -76 24 0 24 -2 24 -84 l0 -85 -30 1 c-53
2 -58 -11 -58 -143 0 -66 -3 -123 -6 -126 -4 -4 -17 -8 -29 -10 -37 -6 -52
-28 -39 -58 11 -24 16 -25 87 -25 42 0 74 -3 72 -7 -3 -5 -8 -35 -11 -68 -4
-33 -9 -71 -11 -85 -4 -29 -11 -90 -21 -175 -3 -33 -8 -68 -9 -77 -2 -9 4 -19
13 -22 9 -2 146 -4 305 -4 277 1 292 3 289 29 -3 24 -14 109 -17 134 -2 17 -7
62 -10 100 -4 39 -11 91 -15 117 -4 26 -5 50 -2 53 3 3 36 5 74 5 64 0 69 2
80 25 13 30 -2 52 -41 60 -13 2 -26 7 -29 10 -3 3 -5 56 -4 119 1 128 -6 147
-56 148 l-32 1 0 74 0 73 38 -16 c20 -9 48 -20 62 -24 14 -4 153 -56 310 -115
578 -216 691 -256 709 -250 23 7 33 39 17 59 -6 9 -83 42 -171 75 -382 141
-871 324 -885 331 -8 5 159 6 370 4 212 -2 536 -6 720 -8 195 -2 342 0 353 5
9 6 17 21 17 34 0 13 -8 28 -17 33 -10 5 -76 9 -148 10 -495 4 -1310 14 -1312
16 -2 1 52 22 120 45 698 244 1011 358 1021 374 24 37 -30 69 -79 47z m-1355
-250 c0 -83 -1 -90 -20 -90 -19 0 -20 7 -20 90 0 83 1 90 20 90 19 0 20 -7 20
-90z m141 -355 c1 -5 2 -44 3 -86 l1 -76 -165 1 -165 1 -2 82 -2 82 122 3
c187 4 207 4 208 -7z m-303 -342 l-3 -98 -55 0 -55 1 -1 89 c0 50 1 93 3 98 2
4 29 7 59 7 l55 0 -3 -97z m199 -1 l0 -98 -51 2 c-28 1 -54 2 -57 3 -3 1 -6
44 -6 96 l0 95 57 0 57 0 0 -98z m194 68 c0 -16 1 -46 1 -65 0 -19 -1 -50 -1
-68 l-1 -33 -52 1 -53 0 -3 98 -3 97 56 0 c54 0 55 0 56 -30z m-228 -354 c10
-11 15 -41 15 -108 0 -51 -1 -100 -4 -109 -6 -23 -41 -30 -59 -12 -22 21 -21
205 1 227 19 20 29 20 47 2z"/>
<path d="M957 1652 c-9 -2 -17 -13 -18 -25 0 -12 -2 -31 -4 -42 -3 -11 -7 -45
-10 -76 -3 -31 -12 -103 -20 -160 -8 -57 -15 -111 -15 -120 0 -15 35 -16 366
-17 l366 0 -6 67 c-4 36 -8 80 -10 96 -2 17 -7 59 -11 95 -4 36 -9 73 -11 84
-2 10 -4 36 -6 57 -1 22 -7 39 -12 40 -36 3 -595 3 -609 1z m331 -114 c12 -16
13 -196 0 -220 -10 -21 -39 -23 -56 -6 -16 16 -16 210 0 226 16 16 43 15 56 0z"/>
<path d="M883 1127 c-5 -9 -9 -33 -17 -107 -9 -78 -17 -141 -22 -170 -2 -14
-6 -54 -10 -90 -3 -36 -8 -67 -11 -70 -2 -3 -109 -6 -236 -6 -288 -2 -265 1
-273 -29 -14 -58 -64 -55 941 -55 1005 0 955 -3 941 55 -8 30 15 27 -268 29
-135 1 -231 5 -237 11 -5 6 -17 75 -26 155 -18 159 -27 239 -29 257 -1 7 -5
16 -9 19 -10 10 -738 11 -744 1z m405 -109 c5 -7 9 -60 8 -117 -1 -87 -4 -106
-18 -115 -13 -8 -23 -8 -35 0 -15 9 -18 29 -21 114 -3 106 4 130 38 130 10 0
22 -6 28 -12z"/>
<path d="M515 404 c-18 -13 -20 -45 -3 -62 17 -17 1469 -17 1486 0 17 17 15
58 -4 65 -31 12 -1462 9 -1479 -3z"/>
<path d="M801 140 c-48 -5 -67 -29 -49 -62 8 -17 42 -18 498 -18 418 0 491 2
503 15 17 17 11 54 -10 62 -17 7 -884 10 -942 3z"/>
</g>
</svg>
