<svg xmlns="http://www.w3.org/2000/svg" viewBox="0 0 112 150.64">
    <title>K</title>
    <path d="M27.62,58.6C37,48.77,46.27,38.84,55.74,29.11,64.81,19.81,74,10.66,83.31,1.57a6.34,6.34,0,0,1,4-1.39,132.88,132.88,0,0,1,15.46.09c2.12.19,5.27,1.53,5.84,3.11.74,2,.06,5.32-1.27,7.18-2.38,3.34-5.7,6-8.64,9C88.46,29.77,78.13,39.93,68,50.27,61.51,56.91,55.32,63.83,48.7,71a39.33,39.33,0,0,0,2.67,3.72c12.11,13.16,24.32,26.22,36.36,39.45q11.51,12.63,22.53,25.71c1.26,1.49,2.17,4.46,1.52,6.06-.77,1.89-3.29,4.12-5.23,4.3a98.73,98.73,0,0,1-18,.07c-5.63-.51-8-6-11.41-9.5-6.61-6.9-12.53-14.46-18.87-21.61C48,107.54,37.64,96,26.73,83.87c-.14,1.79-.33,3.1-.33,4.41v52.48c0,6.88-2.76,9.51-9.58,9.69-15.17.41-16.93-.3-16.82-16.53C.28,92.44.09,50.92.09,9.47.09,1.69,1.66.11,9.25.11h8c7.45,0,9.12,1.67,9.14,9.42V57.94Z" />
</svg>