<svg xmlns="http://www.w3.org/2000/svg" viewBox="0 0 97.32 155.37">
    <title>S</title>
    <path d="M48.17,0c14.42.2,27.06,4.85,39,12.06,4.27,2.58,5.37,6.5,3.09,11a15.68,15.68,0,0,1-1,1.67c-6.44,9.75-7.47,13.19-20.11,5.34-7.33-4.56-15.5-7.42-24.39-6.67-6.82.57-12.88,3-16.55,9.19C23.39,40.75,26.29,50.85,36,56.78a172.9,172.9,0,0,0,22.5,11.13C70.23,73,81.3,79.07,89.56,89.2a33.24,33.24,0,0,1,7.64,19.42c.59,11.16-.88,21.44-8.91,30.37A47.34,47.34,0,0,1,60,154.32c-20.21,3.42-38.43-1.55-54.8-13.83-5.8-4.36-6.52-6.64-3.12-12.7.16-.29.35-.56.51-.86,6.61-11.84,7.91-12.29,18.75-4.75A66.22,66.22,0,0,0,46.93,133c9.2,1.76,22.36-6.56,23.74-15.76,1.23-8.23-3-14.64-9.77-18.67a268,268,0,0,0-25.36-13c-11.1-5.1-21.71-11-28.33-21.52C-6.62,42,2.52,13.47,27.56,4.28,34.07,1.81,41.3,1.35,48.17,0Z" />
</svg>