<svg xmlns="http://www.w3.org/2000/svg" viewBox="0 0 227.51 154.97">
    <title>SY</title>
    <path d="M46.09,155c-14.53-.85-30.49-4.9-43.43-17.12-3.3-3.12-3.41-6.5-1-10.17.45-.69.78-1.45,1.19-2.16,6.84-11.84,10.08-10.27,18.2-4a53.31,53.31,0,0,0,27.09,11,19.47,19.47,0,0,0,22-20.8c-.46-7.08-5.66-11.5-10.9-14.56-10.35-6-21.48-10.71-32.08-16.34-8.35-4.4-15.85-9.9-20.87-18.31C-3.73,45.79-.4,17.94,20.1,7.32c23.15-12,45.54-8.42,67,4.73,4.82,3,5.18,6.74,2,11.73-7.71,12.3-7.71,12.32-20.6,5.82-7.38-3.73-14.74-7.3-23.42-6.7-7.64.53-13.75,3.65-17.58,10.24-4.17,7.18-1.31,17.74,6.81,22.29,11.74,6.56,24,12.14,36.08,18.19A53,53,0,0,1,89.71,89.34c13.61,18.37,9,45.5-11.38,57.58C68.64,152.66,60.64,154.87,46.09,155Z" />
    <path d="M164.5,56.08c12.06-17,23.58-33.37,35.39-49.55a10.77,10.77,0,0,1,6.75-3.74c4.93-.57,10-.22,15-.16s7.42,3.38,4.8,7.83c-3.64,6.21-7.92,12.07-12.08,18-11.94,16.91-24,33.74-35.88,50.7a11.87,11.87,0,0,0-1.91,6.33c-.14,19.83-.07,39.66-.09,59.49,0,6.8-1.23,8-8.16,8-19.37.09-16,.73-16.11-15.82-.15-17,.08-34-.15-51a15.47,15.47,0,0,0-2.5-8.16C135.92,58.27,122,38.7,108.24,19.07a67.15,67.15,0,0,1-5.15-7.78c-2.61-5.13-.52-8.54,5-8.62,4.5-.06,9,.21,13.49-.08,3.82-.25,6,1.41,8.08,4.43C141,23.26,152.61,39.37,164.5,56.08Z" />
</svg>